<?xml version="1.0" encoding="UTF-8"?>
<svg width="32" height="32" viewBox="0 0 32 32" fill="none" xmlns="http://www.w3.org/2000/svg">
  <path d="M16 3C8.8 3 3 8.8 3 16C3 23.2 8.8 29 16 29C23.2 29 29 23.2 29 16C29 8.8 23.2 3 16 3ZM16 27C9.9 27 5 22.1 5 16C5 9.9 9.9 5 16 5C22.1 5 27 9.9 27 16C27 22.1 22.1 27 16 27Z" fill="#16a34a"/>
  <path d="M16 7C11 7 7 11 7 16C7 21 11 25 16 25C21 25 25 21 25 16C25 11 21 7 16 7ZM16 23C12.1 23 9 19.9 9 16C9 12.1 12.1 9 16 9C19.9 9 23 12.1 23 16C23 19.9 19.9 23 16 23Z" fill="#15803d"/>
  <circle cx="16" cy="16" r="5" fill="#16a34a"/>
</svg>